<mxfile host="app.diagrams.net" modified="2023-08-04T12:25:23.587Z" agent="Mozilla/5.0 (Macintosh; Intel Mac OS X 10_15_7) AppleWebKit/537.36 (KHTML, like Gecko) Chrome/115.0.0.0 Safari/537.36" version="21.5.0" etag="JCw4fkTAvogxpql458mV" type="github">
  <diagram name="Page-1" id="ml6qrR4Xy9Pz59Y7QF9g">
    <mxGraphModel>
      <root>
        <mxCell id="0" />
        <mxCell id="1" parent="0" />
      </root>
    </mxGraphModel>
  </diagram>
</mxfile>
